<?xml version="1.0" encoding="UTF-8"?>
<svg width="51px" height="51px" viewBox="0 0 51 51" version="1.1" xmlns="http://www.w3.org/2000/svg" xmlns:xlink="http://www.w3.org/1999/xlink">
    <!-- Generator: Sketch 63.1 (92452) - https://sketch.com -->
    <title>lemon-regular</title>
    <desc>Created with Sketch.</desc>
    <g id="Page-1" stroke="none" stroke-width="1" fill="none" fill-rule="evenodd">
        <g id="Mobile" transform="translate(-17.000000, -3556.000000)" fill="#000000" fill-rule="nonzero">
            <g id="design" transform="translate(-246.000000, -1.000000)">
                <g id="footer" transform="translate(238.000000, 3552.000000)">
                    <g id="lemon-regular" transform="translate(25.000000, 5.000000)">
                        <path d="M48.2221024,2.77803631 C45.4207869,-0.0231760789 41.4482639,-0.802519146 38.5547101,0.88306922 C34.6246207,3.17238948 22.2630925,-4.09500454 9.08397029,9.08410109 C-4.11158748,22.2798415 3.17982155,34.6114713 0.883127315,38.5546046 C-0.802463173,41.448354 -0.023318344,45.420872 2.77789757,48.2220844 C5.58040841,51.0245917 9.55243336,51.8018429 12.4456884,50.1167526 C16.3725903,47.8287273 28.7375051,55.0941291 41.9159301,41.9160196 C55.1115875,28.72008 47.8200788,16.3884502 50.1168727,12.4455161 C51.8024632,9.55186631 51.0233183,5.57934831 48.2221024,2.77803631 Z M45.9903535,10.0389557 C42.1255083,16.6738308 50.5325428,26.5377401 38.535087,38.5351807 C26.5381293,50.5324222 16.6733111,42.1258963 10.0392246,45.9902387 C7.78018268,47.3057785 3.6607358,43.2767821 5.00964647,40.9611649 C8.8744917,34.3262899 0.467457234,24.4623806 12.464913,12.4649399 C24.4613727,0.468395756 34.3269877,8.87382589 40.9612735,5.00958318 C43.2253954,3.69075621 47.336774,7.72772142 45.9903535,10.0389557 Z M29.070599,10.9091425 C29.2070639,12.0008603 28.4327003,12.9966543 27.3408816,13.133119 C21.8777037,13.8159407 13.8160151,21.8775196 13.1330929,27.3408898 C12.9963292,28.4354962 11.9976452,29.2069702 10.9092132,29.0706051 C9.8173944,28.9341403 9.04303082,27.9384459 9.17949572,26.8467281 C10.0921172,19.5467618 19.5555094,10.0909518 26.8467193,9.17952679 C27.9377412,9.04326129 28.9341341,9.81732506 29.070599,10.9091425 L29.070599,10.9091425 Z" id="Shape"></path>
                    </g>
                </g>
            </g>
        </g>
    </g>
</svg>